<svg width="44" height="89" viewBox="0 0 44 89" fill="none" xmlns="http://www.w3.org/2000/svg">
<path d="M2.39225 19.0534L4.3048 19.6384L2.39225 19.0534ZM43.8274 18.2406C44.2763 19.2498 43.822 20.4319 42.8128 20.8808L26.3662 28.1959C25.357 28.6448 24.1749 28.1905 23.726 27.1813C23.2772 26.172 23.7314 24.99 24.7407 24.5411L39.3598 18.0388L32.8575 3.41962C32.4086 2.41038 32.8629 1.22832 33.8721 0.779434C34.8814 0.330544 36.0634 0.784798 36.5123 1.79404L43.8274 18.2406ZM28.615 88C26.862 88.9628 26.8618 88.9625 26.8615 88.9619C26.8613 88.9615 26.8609 88.9607 26.8603 88.9598C26.8593 88.9579 26.8578 88.9552 26.8559 88.9516C26.852 88.9446 26.8463 88.9341 26.8388 88.9204C26.8238 88.893 26.8016 88.8525 26.7725 88.7991C26.7143 88.6925 26.6283 88.5347 26.5166 88.3288C26.2933 87.9169 25.9669 87.3123 25.5535 86.5388C24.7267 84.9919 23.5513 82.7687 22.1542 80.0589C19.3612 74.6414 15.6773 67.2693 12.1214 59.4633C8.57003 51.6673 5.1248 43.392 2.82653 36.1795C1.67795 32.575 0.800112 29.1877 0.346126 26.2298C-0.0999768 23.3233 -0.174564 20.6076 0.479709 18.4684L4.3048 19.6384C3.91762 20.9042 3.88141 22.8969 4.29983 25.623C4.71036 28.2978 5.52318 31.4674 6.63771 34.9651C8.86567 41.9569 12.2365 50.067 15.7615 57.8051C19.282 65.5333 22.9349 72.8441 25.7095 78.2259C27.0963 80.9158 28.2624 83.1214 29.0813 84.6533C29.4906 85.4193 29.8131 86.0167 30.0329 86.4219C30.1427 86.6245 30.2269 86.7791 30.2834 86.8826C30.3117 86.9344 30.333 86.9734 30.3472 86.9993C30.3543 87.0122 30.3596 87.0219 30.3631 87.0282C30.3648 87.0314 30.3661 87.0337 30.3669 87.0352C30.3673 87.0359 30.3676 87.0364 30.3678 87.0368C30.368 87.0371 30.368 87.0372 28.615 88ZM0.479709 18.4684C1.84327 14.0102 5.76421 12.0281 10.016 11.3336C14.2628 10.6399 19.3508 11.1133 24.1154 11.978C28.9171 12.8494 33.5636 14.1518 36.9964 15.23C38.7165 15.7702 40.14 16.2568 41.1362 16.6093C41.6344 16.7856 42.0261 16.9286 42.295 17.0281C42.4295 17.0778 42.5333 17.1167 42.6044 17.1435C42.6399 17.157 42.6673 17.1673 42.6862 17.1746C42.6956 17.1782 42.703 17.181 42.7082 17.183C42.7108 17.184 42.7129 17.1848 42.7144 17.1853C42.7152 17.1856 42.716 17.1859 42.7163 17.1861C42.717 17.1863 42.7174 17.1865 42 19.0534C41.2826 20.9203 41.2828 20.9204 41.2828 20.9204C41.2827 20.9203 41.2826 20.9203 41.2823 20.9202C41.2817 20.92 41.2805 20.9195 41.2789 20.9189C41.2755 20.9176 41.27 20.9155 41.2624 20.9126C41.2472 20.9068 41.2237 20.8979 41.1921 20.8859C41.1288 20.862 41.033 20.8261 40.9069 20.7795C40.6546 20.6861 40.2808 20.5497 39.8018 20.3802C38.8434 20.041 37.4655 19.57 35.7978 19.0462C32.455 17.9962 27.9807 16.7448 23.4012 15.9137C18.7845 15.0759 14.231 14.6981 10.6608 15.2812C7.0956 15.8636 5.02412 17.2865 4.3048 19.6384L0.479709 18.4684Z" fill="#EC008C"/>
</svg>
