<svg width="50" height="113" viewBox="0 0 50 113" fill="none" xmlns="http://www.w3.org/2000/svg">
<path d="M3.43148 84.7359L6.32009 83.9261L3.43148 84.7359ZM49.7765 85.8721C50.404 84.3387 49.6696 82.5869 48.1362 81.9594L23.1475 71.7337C21.6141 71.1062 19.8623 71.8406 19.2348 73.374C18.6073 74.9074 19.3417 76.6592 20.8751 77.2867L43.0873 86.3763L33.9977 108.588C33.3702 110.122 34.1046 111.874 35.6381 112.501C37.1715 113.129 38.9233 112.394 39.5508 110.861L49.7765 85.8721ZM32.2765 2C29.597 0.65089 29.5968 0.651345 29.5964 0.652052C29.5961 0.652625 29.5956 0.653586 29.595 0.654731C29.5939 0.65702 29.5922 0.660317 29.5901 0.664614C29.5858 0.673208 29.5794 0.685803 29.5711 0.702343C29.5545 0.735423 29.53 0.784284 29.4979 0.848483C29.4336 0.976879 29.3389 1.16663 29.2158 1.41418C28.9697 1.90927 28.6103 2.63562 28.1551 3.56478C27.2447 5.42294 25.9507 8.09302 24.4127 11.3473C21.3383 17.8527 17.2826 26.7066 13.3673 36.0829C9.45771 45.4454 5.66054 55.3939 3.12567 64.0721C1.85888 68.409 0.887601 72.4947 0.384534 76.0704C-0.108352 79.5736 -0.199955 82.8964 0.542861 85.5458L6.32009 83.9261C5.91732 82.4895 5.86793 80.1622 6.32602 76.9063C6.77392 73.7227 7.66236 69.9401 8.885 65.7544C11.329 57.3874 15.0295 47.6734 18.9039 38.3949C22.7727 29.1302 26.7875 20.3647 29.8374 13.9109C31.3617 10.6856 32.6434 8.04109 33.5432 6.20461C33.993 5.28644 34.3473 4.57045 34.5886 4.08502C34.7093 3.84231 34.8017 3.65726 34.8636 3.53342C34.8946 3.47151 34.918 3.42489 34.9335 3.39402C34.9412 3.37859 34.947 3.36709 34.9508 3.35959C34.9527 3.35584 34.9541 3.35308 34.9549 3.35133C34.9554 3.35046 34.9556 3.3499 34.9559 3.34947C34.956 3.34916 34.956 3.34911 32.2765 2ZM0.542861 85.5458C2.11445 91.1513 6.70435 93.704 11.6459 94.5846C16.4976 95.4492 22.2378 94.853 27.5168 93.8079C32.8561 92.7508 38.0113 91.1737 41.8092 89.8724C43.7142 89.2196 45.2914 88.6315 46.3963 88.205C46.949 87.9916 47.3842 87.8184 47.684 87.6974C47.8339 87.6369 47.95 87.5894 48.0301 87.5564C48.0701 87.5399 48.1011 87.5271 48.1229 87.5181C48.1337 87.5136 48.1423 87.51 48.1484 87.5074C48.1515 87.5061 48.154 87.5051 48.1559 87.5043C48.1569 87.5039 48.1579 87.5035 48.1584 87.5033C48.1592 87.5029 48.1599 87.5026 47 84.7359C45.8401 81.9692 45.8405 81.9691 45.8407 81.969C45.8406 81.969 45.8407 81.969 45.8405 81.9691C45.84 81.9693 45.839 81.9697 45.8374 81.9704C45.8341 81.9717 45.8285 81.9741 45.8206 81.9774C45.8048 81.9839 45.7798 81.9943 45.746 82.0082C45.6782 82.0361 45.5748 82.0784 45.4381 82.1336C45.1645 82.244 44.7577 82.406 44.2354 82.6076C43.1904 83.011 41.686 83.5722 39.8644 84.1963C36.2092 85.4487 31.3314 86.9362 26.3515 87.9221C21.3112 88.92 16.4456 89.3454 12.6985 88.6777C9.04144 88.026 7.03968 86.4927 6.32009 83.9261L0.542861 85.5458Z" fill="#2D97FA"/>
</svg>
