<svg width="45" height="79" viewBox="0 0 45 79" fill="none" xmlns="http://www.w3.org/2000/svg">
<path d="M43.9995 61.9624C43.9787 61.1343 43.2905 60.4797 42.4624 60.5005L28.9666 60.8386C28.1384 60.8594 27.4839 61.5475 27.5046 62.3757C27.5254 63.2039 28.2136 63.8584 29.0417 63.8377L41.038 63.5371L41.3386 75.5333C41.3593 76.3615 42.0475 77.016 42.8757 76.9953C43.7038 76.9745 44.3584 76.2864 44.3376 75.4582L43.9995 61.9624ZM26.5 1C25.2571 0.160243 25.2568 0.160642 25.2564 0.161237C25.2561 0.161696 25.2555 0.162488 25.2549 0.163406C25.2537 0.165244 25.2519 0.167864 25.2496 0.171261C25.2451 0.178054 25.2384 0.187954 25.2297 0.20092C25.2123 0.226854 25.1866 0.265054 25.1532 0.315197C25.0862 0.415481 24.9877 0.563543 24.8602 0.756785C24.6053 1.14326 24.2343 1.71052 23.7675 2.43779C22.834 3.89219 21.5165 5.98737 19.9765 8.55702C16.8983 13.6932 12.9219 20.7397 9.34378 28.3626C5.77191 35.9723 2.56501 44.2231 1.06811 51.7545C-0.415069 59.2168 -0.294186 66.3448 3.27735 71.3691L5.72251 69.6309C2.8963 65.6552 2.56831 59.5957 4.01056 52.3393C5.43908 45.1519 8.53192 37.1527 12.0595 29.6374C15.5808 22.1353 19.5036 15.1818 22.5497 10.0992C24.0718 7.55951 25.3728 5.49062 26.2922 4.0583C26.7518 3.34222 27.1159 2.78545 27.3644 2.40874C27.4887 2.22039 27.584 2.07707 27.6479 1.98137C27.6799 1.93352 27.704 1.89758 27.7199 1.87387C27.7279 1.86201 27.7338 1.85322 27.7376 1.84752C27.7395 1.84467 27.7409 1.84259 27.7418 1.8413C27.7423 1.84065 27.7425 1.84027 27.7427 1.83994C27.7429 1.83975 27.7429 1.83976 26.5 1ZM3.27735 71.3691C6.75587 76.2625 11.1797 78.2133 15.8186 78.2655C20.3556 78.3166 24.9748 76.555 29.0249 74.3122C33.097 72.0573 36.7334 69.2372 39.3396 66.9969C40.6463 65.8736 41.7023 64.8888 42.4338 64.1827C42.7996 63.8295 43.0848 63.5455 43.2799 63.3483C43.3775 63.2497 43.4527 63.1727 43.5042 63.1196C43.53 63.093 43.5498 63.0724 43.5636 63.058C43.5706 63.0508 43.576 63.0452 43.5798 63.0411C43.5818 63.0391 43.5833 63.0375 43.5845 63.0362C43.5851 63.0356 43.5857 63.035 43.5859 63.0347C43.5864 63.0342 43.5868 63.0338 42.4999 62C41.413 60.9662 41.4133 60.966 41.4134 60.9659C41.4133 60.966 41.4133 60.966 41.4131 60.9662C41.4127 60.9666 41.412 60.9674 41.4109 60.9685C41.4086 60.9709 41.4049 60.9748 41.3996 60.9803C41.3891 60.9912 41.3726 61.0083 41.3503 61.0313C41.3057 61.0774 41.2377 61.147 41.1476 61.2381C40.9673 61.4203 40.6984 61.6881 40.3501 62.0243C39.6532 62.6971 38.6401 63.6421 37.384 64.7219C34.8645 66.8878 31.4001 69.5677 27.5716 71.6878C23.7211 73.82 19.64 75.3084 15.8524 75.2657C12.1668 75.2242 8.64174 73.7375 5.72251 69.6309L3.27735 71.3691Z" fill="white"/>
</svg>
