<svg width="34" height="65" viewBox="0 0 34 65" fill="none" xmlns="http://www.w3.org/2000/svg">
<path d="M2.29419 50.6416L0.864973 51.0969L0.864973 51.0969L2.29419 50.6416ZM33.3622 51.2695C33.709 50.5172 33.3803 49.6262 32.628 49.2793L20.368 43.6275C19.6157 43.2806 18.7247 43.6094 18.3778 44.3617C18.031 45.114 18.3597 46.0051 19.1121 46.3519L30.0098 51.3758L24.9859 62.2735C24.6391 63.0258 24.9678 63.9169 25.7201 64.2637C26.4725 64.6105 27.3635 64.2818 27.7103 63.5295L33.3622 51.2695ZM21.9613 1C20.6593 0.255089 20.6591 0.255346 20.6589 0.255755C20.6587 0.256094 20.6584 0.256654 20.658 0.25733C20.6572 0.258683 20.6561 0.26064 20.6547 0.263196C20.6517 0.26831 20.6475 0.275824 20.6418 0.285704C20.6305 0.305466 20.6139 0.334695 20.592 0.373125C20.5483 0.449984 20.4838 0.563652 20.4 0.711995C20.2324 1.00867 19.9876 1.44408 19.6775 2.00115C19.0572 3.11522 18.1754 4.7163 17.1274 6.66776C15.0323 10.5691 12.2687 15.8783 9.60093 21.5003C6.93685 27.1145 4.35103 33.0768 2.62547 38.2754C1.76316 40.8733 1.10285 43.3183 0.761044 45.4562C0.425567 47.5545 0.366319 49.5318 0.864973 51.0969L3.72341 50.1862C3.44098 49.2997 3.41051 47.887 3.72342 45.9298C4.03 44.0122 4.63769 41.7362 5.47272 39.2205C7.14182 34.192 9.66804 28.3567 12.3113 22.7864C14.9508 17.2238 17.6898 11.9614 19.7704 8.08715C20.8103 6.15085 21.6847 4.5632 22.2986 3.46048C22.6056 2.90916 22.8473 2.47916 23.0121 2.18753C23.0945 2.04171 23.1576 1.9305 23.1999 1.85602C23.2211 1.81878 23.2371 1.79072 23.2477 1.77211C23.253 1.76281 23.257 1.75587 23.2596 1.75132C23.2609 1.74905 23.2618 1.74738 23.2624 1.74631C23.2627 1.74577 23.2629 1.74542 23.2631 1.74516C23.2632 1.74496 23.2632 1.74491 21.9613 1ZM0.864973 51.0969C1.90132 54.3497 4.86212 55.7651 8.02142 56.2606C11.1966 56.7585 15.0046 56.419 18.5762 55.7967C22.1744 55.1698 25.6572 54.2328 28.2309 53.4567C29.5203 53.0679 30.5875 52.7177 31.3342 52.4641C31.7077 52.3372 32.0013 52.2343 32.2028 52.1628C32.3036 52.127 32.3814 52.099 32.4346 52.0797C32.4612 52.0701 32.4817 52.0626 32.4958 52.0574C32.5029 52.0548 32.5084 52.0528 32.5123 52.0514C32.5143 52.0507 32.5158 52.0501 32.517 52.0497C32.5175 52.0495 32.5181 52.0492 32.5184 52.0491C32.5188 52.049 32.5192 52.0488 32 50.6416C31.4808 49.2343 31.481 49.2342 31.481 49.2342C31.4809 49.2342 31.4808 49.2343 31.4806 49.2344C31.4801 49.2345 31.4793 49.2348 31.478 49.2353C31.4754 49.2362 31.4713 49.2378 31.4656 49.2399C31.4542 49.244 31.4365 49.2505 31.4127 49.2591C31.3652 49.2763 31.2933 49.3022 31.1986 49.3358C31.0092 49.4031 30.7287 49.5014 30.3692 49.6235C29.6501 49.8678 28.6162 50.2071 27.3648 50.5845C24.8568 51.3407 21.4989 52.2423 18.0613 52.8413C14.5969 53.4448 11.1737 53.7182 8.48618 53.2968C5.78274 52.8728 4.24923 51.8366 3.72341 50.1862L0.864973 51.0969Z" fill="#EC008C"/>
</svg>
