<svg width="44" height="99" viewBox="0 0 44 99" fill="none" xmlns="http://www.w3.org/2000/svg">
<path d="M2.39225 84.6552L3.84675 84.2886L3.84675 84.2886L2.39225 84.6552ZM43.4095 85.1683C43.6929 84.3898 43.2915 83.5291 42.5131 83.2457L29.8273 78.6281C29.0489 78.3447 28.1881 78.7461 27.9047 79.5246C27.6214 80.303 28.0227 81.1638 28.8012 81.4471L40.0774 85.5517L35.9729 96.8279C35.6895 97.6063 36.0909 98.4671 36.8693 98.7505C37.6478 99.0338 38.5086 98.6325 38.7919 97.854L43.4095 85.1683ZM28.615 1C27.2485 0.381403 27.2483 0.381755 27.2481 0.382363C27.2478 0.382906 27.2474 0.383769 27.2469 0.384854C27.246 0.387025 27.2445 0.390213 27.2426 0.394413C27.2388 0.402811 27.2332 0.415252 27.2258 0.431681C27.211 0.464537 27.189 0.513341 27.16 0.577644C27.1022 0.70625 27.0166 0.896853 26.9053 1.14586C26.6827 1.64387 26.3572 2.37552 25.9447 3.31206C25.1196 5.18506 23.9462 7.87794 22.5514 11.1606C19.7623 17.7245 16.0852 26.653 12.5372 36.1032C8.99147 45.5472 5.56328 55.5422 3.28132 64.2313C2.14058 68.5749 1.27832 72.6218 0.834837 76.1277C0.395565 79.6003 0.347604 82.6807 0.937752 85.0219L3.84675 84.2886C3.39546 82.4983 3.38587 79.8659 3.81112 76.5042C4.23215 73.1758 5.06055 69.267 6.18292 64.9933C8.42719 56.4478 11.815 46.5618 15.3458 37.1577C18.8741 27.7599 22.5338 18.8731 25.3124 12.3338C26.7014 9.06484 27.8696 6.38412 28.6901 4.52144C29.1004 3.59013 29.4237 2.8634 29.6442 2.37C29.7545 2.1233 29.839 1.93494 29.8959 1.80851C29.9243 1.74529 29.9459 1.69756 29.9602 1.66576C29.9674 1.64985 29.9728 1.63794 29.9763 1.63006C29.9781 1.62612 29.9794 1.62319 29.9803 1.62128C29.9807 1.62032 29.981 1.61965 29.9813 1.61917C29.9814 1.61876 29.9815 1.6186 28.615 1ZM0.937752 85.0219C1.53233 87.3806 2.70788 89.2126 4.33497 90.5565C5.94473 91.886 7.92183 92.6772 10.0468 93.0984C14.2614 93.9337 19.3253 93.3644 24.0809 92.3173C28.8698 91.2628 33.5056 89.6864 36.9313 88.3808C38.6475 87.7268 40.0676 87.1378 41.0608 86.7114C41.5575 86.4981 41.9478 86.3253 42.2153 86.2052C42.3491 86.1451 42.4523 86.0982 42.5227 86.0659C42.5579 86.0498 42.5849 86.0374 42.6036 86.0288C42.6129 86.0245 42.6201 86.0211 42.6251 86.0188C42.6277 86.0176 42.6297 86.0167 42.6311 86.016C42.6319 86.0156 42.6326 86.0153 42.6329 86.0152C42.6335 86.0149 42.6339 86.0147 42 84.6552C41.3661 83.2957 41.3663 83.2957 41.3663 83.2957C41.3661 83.2957 41.366 83.2958 41.3656 83.296C41.3649 83.2963 41.3637 83.2969 41.3619 83.2977C41.3584 83.2993 41.3528 83.3019 41.345 83.3055C41.3295 83.3127 41.3057 83.3237 41.2737 83.3383C41.2098 83.3676 41.1134 83.4114 40.9866 83.4684C40.7329 83.5823 40.3577 83.7484 39.8772 83.9547C38.9158 84.3675 37.5345 84.9405 35.8629 85.5775C32.5131 86.8541 28.028 88.3763 23.4357 89.3875C18.8101 90.406 14.2324 90.8696 10.63 90.1556C8.84647 89.8022 7.37122 89.1732 6.24539 88.2434C5.13689 87.3278 4.29362 86.0613 3.84675 84.2886L0.937752 85.0219Z" fill="#EC008C"/>
</svg>
