<svg width="77" height="139" viewBox="0 0 77 139" fill="none" xmlns="http://www.w3.org/2000/svg">
<path d="M9.00006 121L11.4476 119.265L9.00006 121ZM72.9692 108.571C72.7323 106.931 71.211 105.794 69.5711 106.031L42.8484 109.89C41.2086 110.127 40.0712 111.649 40.3081 113.288C40.5449 114.928 42.0663 116.066 43.7061 115.829L67.4597 112.398L70.8904 136.152C71.1273 137.791 72.6486 138.929 74.2885 138.692C75.9283 138.455 77.0657 136.934 76.8288 135.294L72.9692 108.571ZM58.4386 3C56.2183 0.982512 56.2176 0.983244 56.2167 0.984289C56.216 0.985055 56.2148 0.986415 56.2134 0.987946C56.2106 0.99101 56.2067 0.995324 56.2016 1.00088C56.1916 1.01199 56.177 1.02807 56.1581 1.04907C56.1202 1.09105 56.0646 1.15266 55.9922 1.23342C55.8472 1.39493 55.6345 1.63304 55.3593 1.94379C54.8089 2.56526 54.0086 3.47749 53.0011 4.64896C50.9865 6.99158 48.1418 10.3728 44.8097 14.5405C38.1513 22.8687 29.52 34.3705 21.674 47.0225C13.8466 59.6446 6.70437 73.5636 3.14632 86.7076C-0.394834 99.7892 -0.542478 112.725 6.55256 122.735L11.4476 119.265C5.88158 111.413 5.58325 100.668 8.93788 88.2754C12.2756 75.9453 19.0757 62.5971 26.7731 50.1846C34.452 37.8021 42.9282 26.5022 49.4961 18.2872C52.7772 14.1833 55.5753 10.8576 57.5502 8.56119C58.5376 7.41315 59.3187 6.52284 59.8511 5.92166C60.1173 5.62108 60.3213 5.39282 60.4577 5.2408C60.5259 5.1648 60.5772 5.10786 60.611 5.07047C60.6278 5.05178 60.6403 5.03798 60.6483 5.02913C60.6524 5.0247 60.6553 5.02151 60.657 5.01957C60.6579 5.0186 60.6584 5.01808 60.6588 5.01759C60.659 5.01738 60.6589 5.01749 58.4386 3ZM6.55256 122.735C13.2918 132.242 21.0173 136.553 28.976 137.187C36.7776 137.807 44.2613 134.848 50.5725 130.949C56.9139 127.031 62.3641 121.986 66.199 117.971C68.1253 115.954 69.6644 114.176 70.7261 112.897C71.2573 112.257 71.6701 111.74 71.9531 111.379C72.0946 111.199 72.2038 111.058 72.2792 110.959C72.3169 110.91 72.3461 110.871 72.3668 110.844C72.3771 110.83 72.3853 110.82 72.3913 110.812C72.3943 110.808 72.3968 110.804 72.3987 110.802C72.3996 110.8 72.4007 110.799 72.4011 110.798C72.402 110.797 72.4028 110.796 70 109C67.5972 107.204 67.5977 107.203 67.598 107.203C67.598 107.203 67.5982 107.202 67.5981 107.203C67.5978 107.203 67.597 107.204 67.5957 107.206C67.593 107.209 67.5882 107.216 67.5813 107.225C67.5675 107.243 67.5452 107.272 67.5146 107.312C67.4534 107.392 67.3592 107.515 67.2332 107.675C66.9812 107.996 66.6027 108.47 66.1089 109.065C65.1206 110.256 63.6745 111.927 61.8603 113.827C58.2143 117.644 53.1624 122.296 47.4191 125.844C41.6455 129.411 35.4619 131.684 29.452 131.205C23.5994 130.74 17.3694 127.62 11.4476 119.265L6.55256 122.735Z" fill="white"/>
</svg>
