<svg width="20" height="17" viewBox="0 0 20 17" fill="none" xmlns="http://www.w3.org/2000/svg">
<path fill-rule="evenodd" clip-rule="evenodd" d="M2.46726 0.109508C1.29481 0.452432 0.289127 1.56608 0.0682188 2.76612C-0.0227396 3.26015 -0.0227396 13.7229 0.0682188 14.217C0.234525 15.1206 0.94219 16.1071 1.75771 16.5725C2.52099 17.0081 2.39435 17 8.46025 17C14.4154 17 14.3271 17.005 15.0657 16.628C15.488 16.4124 16.1452 15.8006 16.4232 15.3644C16.8844 14.6404 16.9163 14.4281 16.947 11.884C16.9741 9.63222 16.9722 9.59036 16.8334 9.45062C16.5908 9.20626 16.423 9.26936 15.8998 9.80185L15.4148 10.2953L15.3946 12.1332C15.3752 13.8983 15.3681 13.9851 15.2143 14.3278C15.0333 14.731 14.6485 15.1144 14.2349 15.3036C13.9687 15.4253 13.6931 15.4314 8.4816 15.4314C3.12323 15.4314 3.00146 15.4285 2.70378 15.2931C2.33373 15.1247 1.93199 14.7458 1.73507 14.3794L1.58877 14.1071V8.49155V2.87598L1.73514 2.60064C1.93712 2.22055 2.4103 1.79928 2.80914 1.64436C3.12708 1.52082 3.39009 1.51463 8.31266 1.51463C11.156 1.51463 13.6562 1.53777 13.8687 1.56602L14.2551 1.61741L14.6712 1.2235C15.2609 0.665143 15.2453 0.38981 14.61 0.141499C14.3137 0.0257164 13.924 0.0167996 8.58297 0.00427518C3.33042 -0.00804505 2.84022 0.000395295 2.46726 0.109508ZM17.4017 0.804341C17.2634 0.845454 15.9429 2.13043 13.246 4.84823C11.0718 7.03926 9.26833 8.83189 9.23819 8.83189C9.20805 8.83189 8.44984 8.0939 7.55323 7.19193C6.65669 6.28997 5.85063 5.52421 5.76197 5.49025C5.52383 5.39904 5.15479 5.41517 4.94733 5.52585C4.73007 5.64176 3.29163 7.0997 3.18419 7.31289C3.08005 7.51948 3.09059 7.91828 3.20588 8.1376C3.25906 8.23868 4.54471 9.5696 6.06296 11.0951C8.10439 13.1465 8.86679 13.8715 8.99032 13.8792C9.32861 13.8999 9.56783 13.8539 9.76556 13.73C10.1013 13.5197 19.8556 3.64065 19.9324 3.43311C20.031 3.16731 20.0212 2.86876 19.9068 2.65135C19.8536 2.55027 19.4501 2.10756 19.0101 1.66757C18.0978 0.755128 17.9088 0.653707 17.4017 0.804341Z" fill="#472F92"/>
</svg>
