<svg width="148" height="117" viewBox="0 0 148 117" fill="none" xmlns="http://www.w3.org/2000/svg">
<path d="M147.451 60.6433C137.212 62.6967 79.1871 67.811 14.3359 116.279C14.3359 106.995 19.1144 103.314 21.845 100.919C21.845 100.919 49.8334 81.8108 82.6003 72.2537C115.367 62.6965 153.003 58.4371 147.451 60.6433Z" fill="white"/>
<path d="M93.77 40.535C95.9345 40.0853 97.6323 40.179 98.8634 40.8159C100.088 41.4204 100.85 42.5002 101.149 44.0553C101.442 45.5781 101.224 46.9805 100.496 48.2627C99.7946 49.5062 98.8231 50.4824 97.5819 51.1913C98.7083 51.9827 99.7406 52.809 100.679 53.6701C101.649 54.525 102.241 55.5033 102.452 56.6048C102.87 58.7756 102.335 60.6254 100.848 62.1542C99.355 63.6506 97.0696 64.6945 93.9916 65.2861C90.9461 65.8714 88.5468 65.7111 86.7936 64.805C85.0343 63.8665 84.0082 62.6358 83.7156 61.1131C83.4167 59.5579 83.5184 58.0769 84.0207 56.6702C84.5554 55.2571 85.2602 54.4666 86.135 54.2985C86.6534 54.1988 87.0633 54.3216 87.3648 54.6668C87.6601 54.9796 88.2868 55.9678 89.2448 57.6315C89.5962 58.2359 90.0871 58.7798 90.7176 59.2634C92.1716 60.3614 94.1947 60.6613 96.7866 60.1631C96.1612 59.0067 95.327 58.0751 94.2841 57.3685C93.2674 56.6232 92.2568 55.9103 91.2526 55.2298C90.2483 54.5494 89.3319 53.8016 88.5033 52.9866C87.6685 52.1391 87.1266 51.0674 86.8775 49.7715C86.4292 47.4387 86.9397 45.3753 88.409 43.5811C89.8123 41.9675 91.5993 40.9522 93.77 40.535ZM95.3036 49.563C96.3318 47.9208 96.765 46.6785 96.6031 45.8361C96.5284 45.4473 96.3172 45.1352 95.9695 44.8996C95.6481 44.6255 95.2281 44.5382 94.7098 44.6378C94.1914 44.7374 93.7016 44.8988 93.2406 45.1218C92.8119 45.3385 92.458 45.5073 92.1788 45.6282C92.4155 46.8593 93.457 48.1709 95.3036 49.563Z" fill="white"/>
<path d="M76.9795 44.2771C79.144 43.8275 80.8418 43.9212 82.0729 44.5581C83.2977 45.1625 84.0596 46.2424 84.3585 47.7975C84.6512 49.3203 84.4336 50.7227 83.7057 52.0049C83.004 53.2484 82.0326 54.2246 80.7914 54.9335C81.9178 55.7249 82.9501 56.5511 83.8883 57.4123C84.8589 58.2672 85.4501 59.2455 85.6618 60.347C86.079 62.5178 85.5442 64.3676 84.0575 65.8964C82.5645 67.3928 80.279 68.4367 77.2011 69.0283C74.1556 69.6136 71.7563 69.4533 70.0031 68.5472C68.2437 67.6087 67.2177 66.378 66.925 64.8553C66.6261 63.3001 66.7279 61.8191 67.2302 60.4123C67.7649 58.9993 68.4697 58.2088 69.3444 58.0406C69.8628 57.941 70.2728 58.0638 70.5743 58.409C70.8696 58.7218 71.4963 59.71 72.4543 61.3737C72.8057 61.978 73.2966 62.522 73.927 63.0056C75.3811 64.1035 77.4041 64.4034 79.9961 63.9053C79.3706 62.7488 78.5365 61.8173 77.4936 61.1106C76.4768 60.3654 75.4663 59.6525 74.462 58.972C73.4578 58.2915 72.5413 57.5438 71.7128 56.7288C70.878 55.8813 70.3361 54.8096 70.087 53.5137C69.6386 51.1809 70.1491 49.1175 71.6185 47.3233C73.0217 45.7097 74.8088 44.6944 76.9795 44.2771ZM78.5131 53.3052C79.5413 51.663 79.9745 50.4207 79.8126 49.5783C79.7378 49.1895 79.5266 48.8774 79.179 48.6418C78.8575 48.3676 78.4376 48.2804 77.9192 48.38C77.4008 48.4796 76.9111 48.6409 76.45 48.8639C76.0213 49.0807 75.6674 49.2495 75.3883 49.3704C75.6249 50.6015 76.6665 51.9131 78.5131 53.3052Z" fill="white"/>
<path d="M131.085 45.7676C131.668 45.6555 132.103 46.3447 132.389 47.835C132.545 48.645 132.395 49.6985 131.938 50.9957C131.476 52.2604 130.787 53.4846 129.873 54.6683C128.984 55.8134 127.935 56.8214 126.725 57.6922C125.515 58.5631 124.278 59.12 123.014 59.3629C121.297 59.6929 119.857 58.4074 118.695 55.5064C118.121 57.0614 117.24 58.4233 116.054 59.592C114.861 60.7283 113.115 61.5175 110.814 61.9597C108.546 62.3955 106.579 62.0346 104.912 60.8768C103.244 59.719 102.231 58.1164 101.871 56.069C100.812 50.5612 101.809 45.8679 104.859 41.9891C106.159 40.3619 107.433 39.21 108.68 38.5335C109.96 37.8508 111.345 37.3662 112.836 37.0798C114.326 36.7933 115.591 36.819 116.63 37.1568C116.903 36.1301 117.331 35.5607 117.914 35.4486C119.048 35.2306 120.214 35.5273 121.411 36.3386C122.635 37.1114 123.331 37.9351 123.499 38.8099C123.251 39.9662 122.832 41.3736 122.244 43.0321C122.271 44.5723 122.543 46.6869 123.06 49.3761C123.577 52.0652 124.176 53.3443 124.856 53.2136C125.698 53.0517 127.416 50.9746 130.008 46.9824C130.467 46.2224 130.826 45.8174 131.085 45.7676ZM108.707 53.0922C109.186 55.587 110.349 56.6568 112.196 56.3019C114.166 55.8897 115.6 54.5222 116.497 52.1996C116.814 51.3997 117.018 50.4533 117.111 49.3605C116.413 45.7318 116.14 42.5592 116.289 39.8427C113.765 40.8655 111.723 42.5681 110.166 44.9504C108.608 47.3328 108.121 50.0467 108.707 53.0922Z" fill="white"/>
<path d="M60.4696 67.0669C62.9967 66.5812 65.2498 65.1066 67.2289 62.6433C67.9604 61.73 68.5425 60.9126 68.9749 60.1912C69.4012 59.4374 69.7601 59.0324 70.0517 58.9764C70.5053 58.8892 70.8193 59.2992 70.9936 60.2064C71.168 61.1135 71.1211 62.1808 70.8531 63.4082C70.5788 64.6032 69.9774 65.8442 69.049 67.1313C66.767 70.2912 63.1961 72.3381 58.3362 73.2721C54.4807 74.0132 51.5886 73.1244 49.6599 70.6059C48.9871 69.7273 48.4764 68.3808 48.1277 66.5665C47.779 64.7521 47.7742 62.8045 48.1134 60.7235C48.4463 58.6102 49.0589 56.7287 49.9513 55.0789C50.8761 53.423 52.0414 52.0568 53.4471 50.9803C54.8465 49.8714 56.4211 49.1489 58.1706 48.8126C59.9526 48.4701 61.3974 48.646 62.5051 49.3402C63.6452 50.0281 64.3492 51.0687 64.6169 52.4618C64.8847 53.855 64.7493 55.0737 64.2109 56.1178C63.6987 57.1234 62.9509 58.0398 61.9677 58.8671C60.9782 59.662 59.8497 60.4332 58.5824 61.1807C57.3412 61.8896 56.1287 62.6602 54.9448 63.4925L55.1783 64.7074C55.4349 65.8676 56.0796 66.6004 57.1126 66.9058C58.1456 67.2112 59.2646 67.2649 60.4696 67.0669ZM57.0094 53.5208C55.3246 53.8446 54.535 56.029 54.6405 60.0738C55.2337 59.4894 55.7876 58.963 56.3023 58.4945C56.8494 58.0198 57.3186 57.5769 57.7099 57.1657C58.5449 56.2662 58.8914 55.3596 58.7494 54.4462C58.5938 53.6363 58.0138 53.3278 57.0094 53.5208Z" fill="white"/>
<path d="M56.1621 42.9507C54.6596 45.6099 52.5441 47.2017 49.8157 47.7261C47.1118 48.2458 44.9517 47.9473 43.3352 46.8306C41.714 45.6894 40.7173 44.084 40.345 42.0145C39.7582 39.0942 40.1958 36.3975 41.6576 33.9246C43.1194 31.4516 45.362 29.9246 48.3854 29.3435C49.7619 29.079 50.9011 29.0384 51.803 29.2219C53.3666 29.5331 54.198 29.9468 54.2972 30.463C54.3728 30.8563 53.3929 31.2613 51.3574 31.678C49.3418 32.0654 47.7804 33.0919 46.6732 34.7575C45.5858 36.3939 45.2453 38.269 45.6516 40.3829C45.8642 41.489 46.3633 42.3617 47.1488 43.0008C47.9542 43.6107 48.9468 43.8022 50.1267 43.5755C51.3311 43.344 52.2794 42.9068 52.9715 42.2641C50.9995 41.4196 49.7986 39.879 49.3687 37.6422C49.1173 36.467 49.3297 35.3175 50.0057 34.1935C50.7017 33.0402 51.7256 32.3336 53.0775 32.0738C54.4493 31.7847 55.5034 31.9644 56.2398 32.613C56.9761 33.2616 57.4601 34.1882 57.6916 35.3926C57.9183 36.5725 57.8766 37.8804 57.5664 39.3164L57.7876 39.2739C58.8644 39.0414 59.7252 38.4809 60.3701 37.5923C60.6084 37.2407 60.8046 36.9353 60.9587 36.6763C61.1374 36.4125 61.3373 36.2594 61.5586 36.2169C61.9027 36.1508 62.1527 36.5233 62.3086 37.3344C62.5968 38.8338 62.3717 40.0496 61.6332 40.9816C60.89 41.8891 59.9777 42.4468 58.8962 42.6547C57.8392 42.8578 56.9278 42.9565 56.1621 42.9507ZM55.0082 38.7375C55.256 37.7723 55.2996 36.8719 55.139 36.0361C54.9783 35.2004 54.6276 34.8345 54.0869 34.9384C53.8657 34.9809 53.712 35.1761 53.6259 35.524C53.5399 35.8719 53.5252 36.1934 53.5819 36.4883C53.7709 37.4715 54.2463 38.2213 55.0082 38.7375Z" fill="white"/>
<path d="M96.3286 29.2476C96.7711 29.1626 97.101 29.6854 97.3183 30.8161C97.4364 31.4306 97.3224 32.2299 96.9763 33.214C96.6254 34.1736 96.103 35.1024 95.409 36.0004C94.7348 36.8691 93.9387 37.6338 93.0207 38.2946C92.1027 38.9553 91.1643 39.3778 90.2057 39.562C88.9029 39.8124 87.8106 38.8371 86.9288 36.6362C86.4929 37.816 85.8248 38.8492 84.9247 39.7359C84.0199 40.598 82.6949 41.1967 80.9497 41.5321C79.2291 41.8628 77.7364 41.589 76.4715 40.7106C75.2067 39.8322 74.4378 38.6164 74.1647 37.0631C73.3616 32.8844 74.1173 29.3237 76.4319 26.381C77.4181 25.1464 78.3844 24.2726 79.3308 23.7593C80.3017 23.2414 81.3525 22.8737 82.4832 22.6564C83.6139 22.4391 84.5735 22.4586 85.3619 22.7149C85.569 21.9359 85.8938 21.5039 86.3363 21.4189C87.1966 21.2535 88.081 21.4786 88.9895 22.0941C89.9178 22.6804 90.4457 23.3053 90.5732 23.969C90.385 24.8463 90.0677 25.914 89.6214 27.1723C89.642 28.3408 89.8484 29.9451 90.2405 31.9853C90.6327 34.0254 91.0868 34.9959 91.603 34.8967C92.2421 34.7739 93.545 33.1981 95.5117 30.1693C95.8597 29.5926 96.132 29.2854 96.3286 29.2476ZM79.3508 34.8047C79.7146 36.6973 80.597 37.509 81.9981 37.2398C83.4928 36.927 84.5806 35.8896 85.2614 34.1274C85.5016 33.5205 85.6567 32.8025 85.7268 31.9734C85.1977 29.2204 84.9899 26.8135 85.1036 24.7526C83.1882 25.5285 81.6395 26.8202 80.4576 28.6277C79.2757 30.4351 78.9068 32.4941 79.3508 34.8047Z" fill="white"/>
<path d="M75.0538 33.2931C75.4963 33.2081 75.7907 33.5465 75.9372 34.3085C76.0789 35.046 76.0358 35.8826 75.8079 36.8185C75.6045 37.7497 75.1875 38.6964 74.5568 39.6588C73.946 40.5918 73.0927 41.4567 71.9969 42.2536C70.9011 43.0504 69.5298 43.6071 67.8829 43.9236C66.2606 44.2354 64.7428 44.0301 63.3295 43.3077C61.9115 42.5607 61.0277 41.2777 60.6781 39.4588C60.3238 37.6152 60.2876 35.9017 60.5695 34.3182C60.8713 32.7055 61.3852 31.2685 62.1114 30.0075C62.8622 28.7417 63.7831 27.6981 64.8742 26.8767C65.9605 26.0307 67.0445 25.5038 68.126 25.2959C70.0187 24.9321 71.1091 25.4999 71.3973 26.9993C71.5626 27.8596 71.5106 28.5833 71.2411 29.1704C70.9962 29.7527 70.6893 30.0793 70.3206 30.1502C69.829 30.2446 69.3658 30.1553 68.931 29.882C68.4961 29.6087 68.0575 29.5146 67.615 29.5997C67.1679 29.6601 66.7778 29.9517 66.445 30.4745C66.1368 30.9925 65.9136 31.6216 65.7755 32.3619C65.4993 33.8423 65.5383 35.5043 65.8926 37.3478C66.0873 38.228 66.6204 38.8137 67.4921 39.105C68.0895 39.296 68.7593 39.3329 69.5015 39.2158C70.2389 39.0741 70.8922 38.6936 71.4613 38.0745C72.0551 37.4506 72.5803 36.8016 73.037 36.1276C73.489 35.429 73.8767 34.7938 74.2 34.2219C74.548 33.6452 74.8326 33.3356 75.0538 33.2931Z" fill="white"/>
<path d="M29.009 84.3312C27.9449 86.3264 27.6538 88.0639 23.7178 88.8572C22.8622 89.0296 19.3706 88.7935 20.476 85.0139C31.0569 48.8338 28.4646 40.8711 30.1441 27.4239C14.4786 28.4603 -0.533018 46.5157 25.4866 35.1219C27.3015 34.3272 1.283 56.0543 3.27473 37.7136C4.47202 26.6884 23.3675 22.1632 30.7949 20.0859C31.0574 17.2501 31.1418 9.22995 31.7495 7.03783C33.551 5.01907 35.507 4.82997 36.2932 4.64347C36.3234 7.5005 35.9931 9.84692 36.0922 19.1388C49.5403 16.2941 74.1591 12.6874 83.6502 10.7962C84.5744 10.6099 84.5002 13.4207 83.9618 14.0189C80.8899 17.4322 63.3871 21.198 58.3627 22.2107C56.9594 22.4935 41.4731 25.8015 36.0922 26.6515C36.1965 46.4061 34.4702 74.0916 29.009 84.3312Z" fill="white"/>
</svg>
