<svg width="227" height="180" viewBox="0 0 227 180" fill="none" xmlns="http://www.w3.org/2000/svg">
<g filter="url(#filter0_d_90_23)">
<g filter="url(#filter1_i_90_23)">
<path d="M216.218 86.4579C201.619 89.3854 118.895 96.6768 26.438 165.776C26.438 152.54 33.2506 147.293 37.1435 143.878C37.1435 143.878 77.0459 116.636 123.761 103.011C170.476 89.3852 224.132 83.3126 216.218 86.4579Z" fill="url(#paint0_linear_90_23)"/>
</g>
<g filter="url(#filter2_i_90_23)">
<path d="M139.686 57.7899C142.772 57.1489 145.192 57.2823 146.948 58.1903C148.694 59.0521 149.78 60.5916 150.206 62.8088C150.623 64.9797 150.313 66.9791 149.275 68.8071C148.275 70.5799 146.89 71.9717 145.121 72.9824C146.726 74.1106 148.198 75.2886 149.536 76.5164C150.92 77.7352 151.762 79.1299 152.064 80.7003C152.659 83.7951 151.897 86.4323 149.777 88.6119C147.648 90.7453 144.39 92.2336 140.002 93.077C135.66 93.9115 132.239 93.6829 129.74 92.3911C127.232 91.0531 125.769 89.2986 125.352 87.1276C124.925 84.9105 125.07 82.7991 125.787 80.7935C126.549 78.779 127.554 77.6519 128.801 77.4122C129.54 77.2701 130.124 77.4452 130.554 77.9373C130.975 78.3833 131.869 79.7922 133.235 82.164C133.735 83.0256 134.435 83.8012 135.334 84.4906C137.407 86.0559 140.291 86.4835 143.987 85.7733C143.095 84.1246 141.906 82.7965 140.419 81.789C138.969 80.7265 137.529 79.7102 136.097 78.74C134.665 77.7699 133.359 76.7038 132.177 75.5419C130.987 74.3337 130.215 72.8058 129.859 70.9582C129.22 67.6324 129.948 64.6906 132.043 62.1326C134.043 59.8323 136.591 58.3847 139.686 57.7899ZM141.872 70.661C143.338 68.3197 143.956 66.5486 143.725 65.3476C143.618 64.7933 143.317 64.3483 142.822 64.0125C142.363 63.6216 141.765 63.4972 141.026 63.6392C140.287 63.7812 139.588 64.0112 138.931 64.3292C138.32 64.6382 137.815 64.8789 137.417 65.0511C137.755 66.8064 139.24 68.6763 141.872 70.661Z" fill="url(#paint1_linear_90_23)"/>
<path d="M115.748 63.1248C118.834 62.4838 121.255 62.6173 123.01 63.5253C124.756 64.3871 125.842 65.9266 126.269 68.1437C126.686 70.3147 126.376 72.3141 125.338 74.142C124.338 75.9149 122.953 77.3067 121.183 78.3173C122.789 79.4456 124.261 80.6236 125.598 81.8513C126.982 83.0702 127.825 84.4648 128.127 86.0353C128.721 89.1301 127.959 91.7673 125.839 93.9468C123.711 96.0802 120.453 97.5686 116.064 98.412C111.723 99.2465 108.302 99.0178 105.802 97.726C103.294 96.388 101.831 94.6336 101.414 92.4626C100.988 90.2455 101.133 88.134 101.849 86.1284C102.611 84.1139 103.616 82.9868 104.863 82.7471C105.602 82.6051 106.187 82.7802 106.617 83.2723C107.038 83.7182 107.931 85.1271 109.297 87.4989C109.798 88.3606 110.498 89.1361 111.397 89.8255C113.47 91.3909 116.354 91.8184 120.049 91.1082C119.157 89.4595 117.968 88.1314 116.481 87.124C115.032 86.0614 113.591 85.0451 112.159 84.075C110.728 83.1048 109.421 82.0388 108.24 80.8768C107.05 79.6687 106.277 78.1407 105.922 76.2931C105.283 72.9674 106.011 70.0256 108.105 67.4676C110.106 65.1672 112.654 63.7196 115.748 63.1248ZM117.935 75.9959C119.401 73.6546 120.018 71.8835 119.788 70.6826C119.681 70.1283 119.38 69.6832 118.884 69.3474C118.426 68.9565 117.827 68.8321 117.088 68.9742C116.349 69.1162 115.651 69.3462 114.994 69.6641C114.382 69.9732 113.878 70.2138 113.48 70.3861C113.817 72.1414 115.302 74.0113 117.935 75.9959Z" fill="url(#paint2_linear_90_23)"/>
<path d="M192.885 65.2498C193.716 65.09 194.336 66.0725 194.745 68.1972C194.967 69.352 194.752 70.854 194.102 72.7033C193.443 74.5064 192.461 76.2518 191.157 77.9393C189.89 79.5718 188.394 81.0089 186.669 82.2505C184.944 83.4921 183.18 84.286 181.379 84.6322C178.931 85.1028 176.878 83.27 175.221 79.1341C174.402 81.3511 173.147 83.2927 171.455 84.959C169.755 86.579 167.265 87.7041 163.986 88.3344C160.752 88.9559 157.947 88.4413 155.57 86.7906C153.194 85.14 151.749 82.8552 151.235 79.9363C149.726 72.0839 151.146 65.3928 155.496 59.8629C157.349 57.543 159.165 55.9008 160.943 54.9363C162.768 53.9629 164.743 53.2721 166.867 52.8637C168.992 52.4554 170.795 52.492 172.277 52.9736C172.666 51.5097 173.276 50.6979 174.108 50.5382C175.724 50.2274 177.386 50.6504 179.094 51.8071C180.838 52.9088 181.83 54.0831 182.07 55.3303C181.716 56.9789 181.12 58.9854 180.281 61.3498C180.32 63.5456 180.708 66.5604 181.445 70.3943C182.181 74.2281 183.035 76.0518 184.005 75.8653C185.206 75.6345 187.654 72.6733 191.35 66.9817C192.004 65.8981 192.515 65.3208 192.885 65.2498ZM160.981 75.6923C161.665 79.249 163.323 80.7743 165.956 80.2683C168.765 79.6806 170.809 77.7311 172.088 74.4198C172.539 73.2793 172.831 71.93 172.963 70.372C171.968 65.1987 171.578 60.6756 171.791 56.8028C168.192 58.261 165.282 60.6882 163.061 64.0847C160.84 67.4812 160.147 71.3504 160.981 75.6923Z" fill="url(#paint3_linear_90_23)"/>
<path d="M92.2095 95.6161C95.8123 94.9236 99.0246 92.8214 101.846 89.3096C102.889 88.0075 103.719 86.8422 104.335 85.8136C104.943 84.7389 105.455 84.1615 105.871 84.0816C106.517 83.9574 106.965 84.5419 107.213 85.8352C107.462 87.1286 107.395 88.6502 107.013 90.4C106.622 92.1037 105.765 93.873 104.441 95.708C101.188 100.213 96.0966 103.131 89.168 104.463C83.6713 105.519 79.5481 104.252 76.7984 100.662C75.8392 99.409 75.1111 97.4894 74.6139 94.9027C74.1168 92.316 74.11 89.5393 74.5935 86.5726C75.0681 83.5596 75.9416 80.8771 77.2138 78.5252C78.5323 76.1643 80.1936 74.2165 82.1976 72.6818C84.1929 71.1009 86.4376 70.0708 88.9319 69.5914C91.4724 69.1031 93.5323 69.3538 95.1115 70.3435C96.7369 71.3244 97.7405 72.8078 98.1223 74.794C98.504 76.7802 98.3111 78.5177 97.5434 80.0063C96.8131 81.4399 95.7471 82.7464 94.3453 83.9259C92.9346 85.0591 91.3258 86.1586 89.5189 87.2244C87.7494 88.235 86.0207 89.3336 84.3329 90.5202L84.6658 92.2523C85.0316 93.9063 85.9508 94.951 87.4235 95.3864C88.8962 95.8218 90.4915 95.8984 92.2095 95.6161ZM87.2764 76.3038C84.8744 76.7654 83.7487 79.8796 83.8991 85.6462C84.7448 84.8131 85.5345 84.0626 86.2683 83.3947C87.0483 82.7179 87.7172 82.0865 88.2751 81.5003C89.4655 80.2177 89.9595 78.9254 89.7571 77.6231C89.5352 76.4684 88.7083 76.0286 87.2764 76.3038Z" fill="url(#paint4_linear_90_23)"/>
</g>
<g filter="url(#filter3_i_90_23)">
<path d="M86.0704 61.2339C83.9283 65.0251 80.9123 67.2944 77.0225 68.042C73.1677 68.7829 70.0879 68.3574 67.7834 66.7654C65.472 65.1383 64.051 62.8496 63.5203 59.8992C62.6838 55.7357 63.3075 51.8912 65.3916 48.3655C67.4757 44.8399 70.673 42.6628 74.9833 41.8344C76.9458 41.4572 78.5699 41.3995 79.8557 41.6611C82.0849 42.1047 83.2703 42.6945 83.4117 43.4304C83.5195 43.9911 82.1224 44.5685 79.2205 45.1626C76.3469 45.7149 74.1208 47.1784 72.5423 49.553C70.9921 51.8859 70.5066 54.5592 71.0858 57.573C71.3889 59.15 72.1004 60.3941 73.2203 61.3053C74.3686 62.1748 75.7838 62.4479 77.4658 62.1246C79.183 61.7945 80.5349 61.1713 81.5216 60.2549C78.7102 59.051 76.9981 56.8546 76.3851 53.6656C76.0268 51.9902 76.3296 50.3513 77.2934 48.7489C78.2856 47.1047 79.7454 46.0974 81.6728 45.7269C83.6285 45.3147 85.1313 45.5709 86.1811 46.4956C87.231 47.4203 87.9209 48.7413 88.2509 50.4584C88.5742 52.1405 88.5147 54.0052 88.0724 56.0525L88.3878 55.9919C89.923 55.6605 91.1503 54.8613 92.0696 53.5945C92.4093 53.0932 92.6891 52.6578 92.9088 52.2886C93.1636 51.9126 93.4487 51.6942 93.764 51.6336C94.2547 51.5393 94.6111 52.0704 94.8334 53.2268C95.2442 55.3645 94.9232 57.0978 93.8705 58.4266C92.8109 59.7204 91.5102 60.5154 89.9683 60.8118C88.4614 61.1014 87.1621 61.2421 86.0704 61.2339ZM84.4253 55.2272C84.7786 53.8512 84.8408 52.5674 84.6118 51.3759C84.3828 50.1844 83.8828 49.6627 83.1118 49.8109C82.7964 49.8715 82.5774 50.1498 82.4547 50.6458C82.332 51.1418 82.311 51.6 82.3919 52.0206C82.6613 53.4223 83.3391 54.4912 84.4253 55.2272Z" fill="url(#paint5_linear_90_23)"/>
<path d="M143.333 41.6975C143.964 41.5762 144.434 42.3216 144.744 43.9336C144.913 44.8097 144.75 45.9493 144.257 47.3523C143.756 48.7203 143.012 50.0444 142.022 51.3247C141.061 52.5633 139.926 53.6535 138.617 54.5955C137.308 55.5375 135.971 56.1398 134.604 56.4025C132.747 56.7594 131.189 55.369 129.932 52.2312C129.311 53.9132 128.358 55.3862 127.075 56.6503C125.785 57.8794 123.896 58.733 121.408 59.2112C118.955 59.6827 116.827 59.2923 115.024 58.04C113.22 56.7877 112.124 55.0543 111.735 52.8398C110.59 46.8824 111.667 41.806 114.967 37.6106C116.373 35.8505 117.751 34.6046 119.1 33.8729C120.484 33.1345 121.982 32.6103 123.594 32.3005C125.206 31.9907 126.574 32.0185 127.698 32.3838C127.994 31.2733 128.457 30.6574 129.088 30.5362C130.314 30.3004 131.575 30.6213 132.87 31.4989C134.194 32.3347 134.946 33.2256 135.128 34.1718C134.86 35.4225 134.407 36.9448 133.771 38.7387C133.8 40.4046 134.095 42.6918 134.654 45.6005C135.213 48.5091 135.86 49.8927 136.596 49.7513C137.507 49.5761 139.365 47.3295 142.169 43.0115C142.665 42.1894 143.053 41.7514 143.333 41.6975ZM119.128 49.62C119.647 52.3184 120.905 53.4756 122.903 53.0917C125.034 52.6458 126.584 51.1667 127.555 48.6545C127.898 47.7893 128.119 46.7656 128.219 45.5836C127.464 41.6587 127.168 38.2272 127.33 35.289C124.599 36.3952 122.391 38.2368 120.706 40.8136C119.021 43.3904 118.495 46.3259 119.128 49.62Z" fill="url(#paint6_linear_90_23)"/>
<path d="M113.002 47.4654C113.633 47.3441 114.053 47.8267 114.262 48.913C114.464 49.9643 114.402 51.1572 114.077 52.4915C113.787 53.819 113.193 55.1688 112.294 56.5407C111.423 57.8709 110.206 59.104 108.644 60.2401C107.082 61.3761 105.127 62.1697 102.779 62.621C100.466 63.0655 98.3022 62.7728 96.2873 61.7429C94.2657 60.6779 93.0057 58.8488 92.5073 56.2556C92.0022 53.6273 91.9505 51.1844 92.3524 48.9269C92.7826 46.6276 93.5154 44.579 94.5507 42.7811C95.621 40.9765 96.934 39.4887 98.4895 38.3176C100.038 37.1115 101.584 36.3602 103.126 36.0639C105.824 35.5453 107.379 36.3548 107.789 38.4924C108.025 39.719 107.951 40.7507 107.567 41.5877C107.217 42.4179 106.78 42.8835 106.254 42.9845C105.554 43.1192 104.893 42.9918 104.273 42.6022C103.653 42.2126 103.028 42.0784 102.397 42.1997C101.76 42.2859 101.204 42.7016 100.729 43.4469C100.29 44.1854 99.9713 45.0824 99.7745 46.1377C99.3807 48.2483 99.4364 50.6178 99.9415 53.2461C100.219 54.5009 100.979 55.3359 102.222 55.7512C103.074 56.0235 104.028 56.0762 105.086 55.9092C106.138 55.7071 107.069 55.1647 107.881 54.282C108.727 53.3926 109.476 52.4674 110.127 51.5064C110.771 50.5105 111.324 49.6048 111.785 48.7894C112.281 47.9673 112.687 47.526 113.002 47.4654Z" fill="url(#paint7_linear_90_23)"/>
<path d="M47.3575 120.229C45.8404 123.073 45.4255 125.55 39.814 126.681C38.5941 126.927 33.6163 126.591 35.1921 121.202C50.2772 69.621 46.5814 58.2688 48.9757 39.0974C26.6418 40.575 5.24009 66.3161 42.3356 50.0723C44.9231 48.9392 7.82914 79.9151 10.6687 53.7672C12.3757 38.0488 39.3146 31.5973 49.9037 28.6357C50.2778 24.5929 50.3982 13.1587 51.2645 10.0334C53.8329 7.15531 56.6215 6.88572 57.7424 6.61983C57.7855 10.693 57.3146 14.0383 57.4559 27.2855C76.6285 23.2299 111.727 18.0878 125.258 15.3916C126.576 15.1261 126.47 19.1333 125.703 19.9862C121.323 24.8524 96.3695 30.2213 89.2064 31.665C87.2058 32.0682 65.1273 36.7844 57.4559 37.9962C57.6046 66.1599 55.1434 105.63 47.3575 120.229Z" fill="url(#paint8_linear_90_23)"/>
</g>
</g>
<defs>
<filter id="filter0_d_90_23" x="0.513672" y="0.619629" width="226.486" height="179.157" filterUnits="userSpaceOnUse" color-interpolation-filters="sRGB">
<feFlood flood-opacity="0" result="BackgroundImageFix"/>
<feColorMatrix in="SourceAlpha" type="matrix" values="0 0 0 0 0 0 0 0 0 0 0 0 0 0 0 0 0 0 127 0" result="hardAlpha"/>
<feOffset dy="4"/>
<feGaussianBlur stdDeviation="5"/>
<feComposite in2="hardAlpha" operator="out"/>
<feColorMatrix type="matrix" values="0 0 0 0 0 0 0 0 0 0 0 0 0 0 0 0 0 0 0.7 0"/>
<feBlend mode="normal" in2="BackgroundImageFix" result="effect1_dropShadow_90_23"/>
<feBlend mode="normal" in="SourceGraphic" in2="effect1_dropShadow_90_23" result="shape"/>
</filter>
<filter id="filter1_i_90_23" x="26.438" y="85.6445" width="190.562" height="83.1318" filterUnits="userSpaceOnUse" color-interpolation-filters="sRGB">
<feFlood flood-opacity="0" result="BackgroundImageFix"/>
<feBlend mode="normal" in="SourceGraphic" in2="BackgroundImageFix" result="shape"/>
<feColorMatrix in="SourceAlpha" type="matrix" values="0 0 0 0 0 0 0 0 0 0 0 0 0 0 0 0 0 0 127 0" result="hardAlpha"/>
<feOffset dy="3"/>
<feGaussianBlur stdDeviation="2"/>
<feComposite in2="hardAlpha" operator="arithmetic" k2="-1" k3="1"/>
<feColorMatrix type="matrix" values="0 0 0 0 0.04225 0 0 0 0 0.0270833 0 0 0 0 0.216667 0 0 0 0.22 0"/>
<feBlend mode="normal" in2="shape" result="effect1_innerShadow_90_23"/>
</filter>
<filter id="filter2_i_90_23" x="74.2358" y="50.4395" width="120.594" height="57.3838" filterUnits="userSpaceOnUse" color-interpolation-filters="sRGB">
<feFlood flood-opacity="0" result="BackgroundImageFix"/>
<feBlend mode="normal" in="SourceGraphic" in2="BackgroundImageFix" result="shape"/>
<feColorMatrix in="SourceAlpha" type="matrix" values="0 0 0 0 0 0 0 0 0 0 0 0 0 0 0 0 0 0 127 0" result="hardAlpha"/>
<feOffset dy="3"/>
<feGaussianBlur stdDeviation="2"/>
<feComposite in2="hardAlpha" operator="arithmetic" k2="-1" k3="1"/>
<feColorMatrix type="matrix" values="0 0 0 0 0.04225 0 0 0 0 0.0270833 0 0 0 0 0.216667 0 0 0 0.22 0"/>
<feBlend mode="normal" in2="shape" result="effect1_innerShadow_90_23"/>
</filter>
<filter id="filter3_i_90_23" x="10.5137" y="6.61963" width="134.295" height="123.119" filterUnits="userSpaceOnUse" color-interpolation-filters="sRGB">
<feFlood flood-opacity="0" result="BackgroundImageFix"/>
<feBlend mode="normal" in="SourceGraphic" in2="BackgroundImageFix" result="shape"/>
<feColorMatrix in="SourceAlpha" type="matrix" values="0 0 0 0 0 0 0 0 0 0 0 0 0 0 0 0 0 0 127 0" result="hardAlpha"/>
<feOffset dy="3"/>
<feGaussianBlur stdDeviation="2"/>
<feComposite in2="hardAlpha" operator="arithmetic" k2="-1" k3="1"/>
<feColorMatrix type="matrix" values="0 0 0 0 0.04225 0 0 0 0 0.0270833 0 0 0 0 0.216667 0 0 0 0.22 0"/>
<feBlend mode="normal" in2="shape" result="effect1_innerShadow_90_23"/>
</filter>
<linearGradient id="paint0_linear_90_23" x1="121.719" y1="85.6445" x2="121.719" y2="165.776" gradientUnits="userSpaceOnUse">
<stop offset="0.197917" stop-color="#3EF9FE"/>
<stop offset="0.666667" stop-color="#637FFC"/>
<stop offset="1" stop-color="#E631EE"/>
</linearGradient>
<linearGradient id="paint1_linear_90_23" x1="136.138" y1="58.0224" x2="139.627" y2="93.2403" gradientUnits="userSpaceOnUse">
<stop offset="0.197917" stop-color="#3EF9FE"/>
<stop offset="0.666667" stop-color="#637FFC"/>
<stop offset="1" stop-color="#E631EE"/>
</linearGradient>
<linearGradient id="paint2_linear_90_23" x1="112.2" y1="63.3574" x2="115.69" y2="98.5753" gradientUnits="userSpaceOnUse">
<stop offset="0.197917" stop-color="#3EF9FE"/>
<stop offset="0.666667" stop-color="#637FFC"/>
<stop offset="1" stop-color="#E631EE"/>
</linearGradient>
<linearGradient id="paint3_linear_90_23" x1="170.629" y1="50.8598" x2="174.247" y2="87.38" gradientUnits="userSpaceOnUse">
<stop offset="0.197917" stop-color="#3EF9FE"/>
<stop offset="0.666667" stop-color="#637FFC"/>
<stop offset="1" stop-color="#E631EE"/>
</linearGradient>
<linearGradient id="paint4_linear_90_23" x1="88.8236" y1="69.5414" x2="92.2619" y2="104.246" gradientUnits="userSpaceOnUse">
<stop offset="0.197917" stop-color="#3EF9FE"/>
<stop offset="0.666667" stop-color="#637FFC"/>
<stop offset="1" stop-color="#E631EE"/>
</linearGradient>
<linearGradient id="paint5_linear_90_23" x1="77.657" y1="41.4819" x2="80.2653" y2="67.8095" gradientUnits="userSpaceOnUse">
<stop offset="0.197917" stop-color="#3EF9FE"/>
<stop offset="0.666667" stop-color="#637FFC"/>
<stop offset="1" stop-color="#E631EE"/>
</linearGradient>
<linearGradient id="paint6_linear_90_23" x1="126.448" y1="30.7802" x2="129.193" y2="58.4871" gradientUnits="userSpaceOnUse">
<stop offset="0.197917" stop-color="#3EF9FE"/>
<stop offset="0.666667" stop-color="#637FFC"/>
<stop offset="1" stop-color="#E631EE"/>
</linearGradient>
<linearGradient id="paint7_linear_90_23" x1="101.719" y1="36.1643" x2="104.33" y2="62.5155" gradientUnits="userSpaceOnUse">
<stop offset="0.197917" stop-color="#3EF9FE"/>
<stop offset="0.666667" stop-color="#637FFC"/>
<stop offset="1" stop-color="#E631EE"/>
</linearGradient>
<linearGradient id="paint8_linear_90_23" x1="65.2812" y1="5.87294" x2="76.8873" y2="123.02" gradientUnits="userSpaceOnUse">
<stop offset="0.197917" stop-color="#3EF9FE"/>
<stop offset="0.666667" stop-color="#637FFC"/>
<stop offset="1" stop-color="#E631EE"/>
</linearGradient>
</defs>
</svg>
