<svg width="20" height="18" viewBox="0 0 20 18" fill="none" xmlns="http://www.w3.org/2000/svg">
<path d="M20 2.12903C19.2476 2.51613 18.4953 2.70968 17.6176 2.83871C18.4953 2.25806 19.1223 1.41935 19.4357 0.322581C18.6207 0.83871 17.7429 1.22581 16.8025 1.41935C16.1129 0.580645 14.9843 0 13.8558 0C11.5987 0 9.78056 2 9.78056 4.51613C9.78056 4.83871 9.84326 5.22581 9.90596 5.54839C6.45768 5.41935 3.38558 3.54839 1.37931 0.83871C1.00313 1.48387 0.815047 2.25806 0.815047 3.09677C0.815047 4.64516 1.5674 6.06452 2.63323 6.90323C1.94357 6.90323 1.31661 6.70968 0.752351 6.32258V6.3871C0.752351 8.58064 2.19436 10.3871 4.01254 10.8387C3.76176 10.9677 3.38558 10.9677 3.0094 10.9677C2.75862 10.9677 2.50784 10.9677 2.25705 10.9032C2.75862 12.7097 4.26332 14 6.0815 14.0645C4.70219 15.2903 2.88401 16 1.00313 16C0.689655 16 0.31348 16 0 15.9355C1.81818 17.2258 3.94984 18 6.26959 18C13.7931 18 17.931 11.0968 17.931 5.09677C17.931 4.90323 17.931 4.70968 17.931 4.51613C18.7461 3.87097 19.4357 3.03226 20 2.12903Z" fill="white"/>
</svg>
