<svg width="22" height="15" viewBox="0 0 22 15" fill="none" xmlns="http://www.w3.org/2000/svg">
<path fill-rule="evenodd" clip-rule="evenodd" d="M18.8994 0.445194C19.8146 0.692158 20.5291 1.40759 20.7749 2.32306C21.2178 3.97833 21.2178 7.43568 21.2178 7.43568C21.2178 7.43568 21.2178 10.893 20.7749 12.5483C20.531 13.4624 19.8135 14.1823 18.8994 14.4262C17.2442 14.8714 10.6089 14.8714 10.6089 14.8714C10.6089 14.8714 3.97359 14.8714 2.31832 14.4262C1.40662 14.1823 0.686735 13.4624 0.442826 12.5483C0 10.893 0 7.43568 0 7.43568C0 7.43568 0 3.97833 0.442826 2.32069C0.687849 1.40476 1.4027 0.689003 2.31832 0.442825C3.97359 0 10.6089 0 10.6089 0C10.6089 0 17.2442 0 18.8994 0.445194ZM8.50134 4.2627V10.6091L13.9952 7.4122L8.50134 4.2627Z" fill="white"/>
</svg>
